<svg width="47" height="51" viewBox="0 0 47 51" fill="none" xmlns="http://www.w3.org/2000/svg">
<g id="Group">
<path id="Vector" d="M40.1164 0H6.7806C6.30747 0 5.92395 0.38352 5.92395 0.856647V11.5952H3.12193C1.40057 11.5952 0 12.9958 0 14.7162V38.7947C0 40.516 1.40057 41.9166 3.12193 41.9166H19.9628C19.9108 43.0689 19.3274 45.3306 14.8282 48.8262C14.5397 49.0511 14.425 49.4347 14.5442 49.7805C14.6625 50.1264 14.9886 50.3594 15.3542 50.3594H24.0829H24.324H33.0526C33.4128 50.3594 33.7345 50.1336 33.8573 49.7949C33.9801 49.4562 33.8779 49.0771 33.601 48.8459C29.5131 45.4301 28.6753 43.146 28.5023 41.9175H43.775C45.4964 41.9175 46.897 40.5169 46.897 38.7956V14.7162C46.897 12.9958 45.4964 11.5952 43.775 11.5952H40.973V0.856647C40.973 0.38352 40.5895 0 40.1164 0ZM7.63725 1.7133H39.2597V35.9684H7.63725V1.7133ZM3.12193 13.3085H5.92395V36.0473H1.7133V14.7162C1.7133 13.9402 2.34503 13.3085 3.12193 13.3085ZM30.8626 48.6461H24.324H24.0829H17.6509C21.099 45.3002 21.6232 43.215 21.6716 41.9166H26.7738C26.9002 43.1541 27.5543 45.2572 30.8626 48.6461ZM43.775 40.2033H3.12193C2.34503 40.2033 1.7133 39.5716 1.7133 38.7947V37.7597H45.1837V38.7947C45.1837 39.5716 44.5519 40.2033 43.775 40.2033ZM43.775 13.3085C44.5519 13.3085 45.1837 13.9402 45.1837 14.7162V36.0473H40.973V13.3085H43.775Z" fill="#2CB81D"/>
<g id="Group_2">
<path id="Vector_2" d="M28.5543 26.9485H18.3426C17.8695 26.9485 17.486 27.3321 17.486 27.8052C17.486 28.2783 17.8695 28.6618 18.3426 28.6618H28.5543C29.0274 28.6618 29.4109 28.2783 29.4109 27.8052C29.4109 27.3321 29.0274 26.9485 28.5543 26.9485Z" fill="#2CB81D"/>
<path id="Vector_3" d="M25.1304 30.6081H21.7665C21.2934 30.6081 20.9099 30.9916 20.9099 31.4647C20.9099 31.9379 21.2934 32.3214 21.7665 32.3214H25.1304C25.6035 32.3214 25.987 31.9379 25.987 31.4647C25.987 30.9907 25.6035 30.6081 25.1304 30.6081Z" fill="#2CB81D"/>
</g>
<g id="Group_3">
<path id="Vector_4" d="M22.4699 23.721C26.2111 23.721 29.5488 21.3471 30.7746 17.8156C30.9588 17.2842 30.6777 16.7038 30.1462 16.5206C29.6148 16.3332 29.0355 16.6175 28.8512 17.1479C28.5935 17.8913 28.2048 18.559 27.7309 19.1501C26.3805 17.6282 24.4869 16.739 22.4677 16.739C20.4411 16.739 18.555 17.6303 17.2057 19.1533C16.2759 17.9967 15.7168 16.5302 15.7168 14.9338C15.7168 11.2096 18.7467 8.18077 22.4699 8.18077C24.5849 8.18077 26.5381 9.14351 27.8299 10.8251C28.1728 11.2703 28.8118 11.3544 29.257 11.0115C29.7032 10.6686 29.7863 10.0306 29.4433 9.58442C27.7639 7.39801 25.2218 6.14453 22.4699 6.14453C17.6242 6.14453 13.6816 10.0871 13.6816 14.9327C13.6816 19.7784 17.6242 23.721 22.4699 23.721ZM22.4677 18.5697C23.9789 18.5697 25.4007 19.2502 26.4092 20.4131C25.2867 21.2193 23.9182 21.6837 22.4699 21.6837C21.0012 21.6837 19.6445 21.2076 18.5348 20.4078C19.5422 19.248 20.9544 18.5697 22.4677 18.5697Z" fill="#2CB81D"/>
<path id="Vector_5" d="M19.5551 12.3662C19.5551 13.9285 20.8022 15.6761 22.47 15.6761C24.1388 15.6761 25.3848 13.9285 25.3848 12.3662C25.3848 10.7591 24.077 9.45026 22.47 9.45026C20.8629 9.45026 19.5551 10.7591 19.5551 12.3662ZM23.5531 12.3662C23.5531 13.0573 22.9758 13.8433 22.47 13.8433C21.9641 13.8433 21.3869 13.0573 21.3869 12.3662C21.3869 11.7687 21.8725 11.2842 22.47 11.2842C23.0674 11.2842 23.5531 11.7687 23.5531 12.3662Z" fill="#2CB81D"/>
<path id="Vector_6" d="M28.1984 12.2894C27.7649 11.9348 27.1228 11.9976 26.766 12.4311C26.4092 12.8656 26.4731 13.5067 26.9076 13.8635L28.6286 15.2746C28.8171 15.4301 29.0461 15.5057 29.273 15.5057C29.5669 15.5057 29.8598 15.3789 30.06 15.1329L32.9844 11.5684C33.3412 11.1339 33.2773 10.4928 32.8428 10.136C32.4093 9.78141 31.7671 9.84424 31.4104 10.2777L29.1313 13.0552L28.1984 12.2894Z" fill="#2CB81D"/>
</g>
</g>
</svg>
