<svg width="99" height="90" viewBox="0 0 99 90" fill="none" xmlns="http://www.w3.org/2000/svg">
<path id="Ellipse 30" d="M96.9166 65.9067C98.9398 67.5289 99.2785 70.4997 97.4938 72.3813C93.4799 76.6134 88.8281 80.2053 83.699 83.0223C77.1957 86.5942 70.0525 88.8501 62.6773 89.6613C55.302 90.4725 47.8393 89.8231 40.715 87.7502C33.5908 85.6773 26.9446 82.2215 21.1559 77.58C15.3673 72.9386 10.5495 67.2024 6.97766 60.699C3.40583 54.1957 1.14991 47.0525 0.3387 39.6772C-0.472508 32.302 0.176883 24.8393 2.24979 17.715C3.88464 12.0964 6.37967 6.77501 9.63809 1.93718C11.0868 -0.213764 14.0602 -0.528946 16.0834 1.09333C18.1067 2.71561 18.4096 5.65975 16.9967 7.8344C14.49 11.6927 12.5573 15.9047 11.2671 20.3388C9.53876 26.2788 8.9973 32.5012 9.67368 38.6505C10.35 44.7998 12.231 50.7557 15.2091 56.1781C18.1873 61.6005 22.2042 66.3832 27.0307 70.2532C31.8572 74.1231 37.3987 77.0045 43.3388 78.7329C49.2788 80.4612 55.5012 81.0027 61.6505 80.3263C67.7998 79.65 73.7557 77.769 79.1781 74.7909C83.2258 72.5678 86.917 69.7658 90.1382 66.4804C91.9537 64.6286 94.8933 64.2844 96.9166 65.9067Z" fill="#2CB81D"/>
</svg>
