<svg width="56" height="56" viewBox="0 0 56 56" fill="none" xmlns="http://www.w3.org/2000/svg">
<g id="energy 2">
<path id="Vector" d="M23.975 25.41C23.9743 25.9019 23.7785 26.3735 23.4306 26.7212C23.0827 27.069 22.6111 27.2645 22.1191 27.265C21.8871 27.265 21.6645 27.3572 21.5004 27.5213C21.3363 27.6854 21.2441 27.9079 21.2441 28.14V35.0744C21.2441 35.3064 21.3363 35.529 21.5004 35.6931C21.6645 35.8572 21.8871 35.9494 22.1191 35.9494C22.6112 35.9498 23.083 36.1455 23.4309 36.4935C23.7789 36.8414 23.9746 37.3132 23.975 37.8053C23.975 38.0373 24.0672 38.2599 24.2313 38.424C24.3954 38.5881 24.618 38.6803 24.85 38.6803H45.9559C46.188 38.6803 46.4105 38.5881 46.5746 38.424C46.7387 38.2599 46.8309 38.0373 46.8309 37.8053C46.8314 37.3133 47.0269 36.8417 47.3747 36.4938C47.7224 36.1459 48.194 35.9501 48.6859 35.9494C48.918 35.9494 49.1405 35.8572 49.3046 35.6931C49.4687 35.529 49.5609 35.3064 49.5609 35.0744V28.14C49.5609 27.9079 49.4687 27.6854 49.3046 27.5213C49.1405 27.3572 48.918 27.265 48.6859 27.265C48.1941 27.2645 47.7225 27.069 47.3747 26.7212C47.0269 26.3734 46.8314 25.9018 46.8309 25.41C46.8309 25.1779 46.7387 24.9554 46.5746 24.7913C46.4105 24.6272 46.188 24.535 45.9559 24.535H24.85C24.618 24.535 24.3954 24.6272 24.2313 24.7913C24.0672 24.9554 23.975 25.1779 23.975 25.41ZM45.192 26.285C45.3513 26.919 45.6795 27.498 46.1418 27.9602C46.604 28.4225 47.183 28.7507 47.817 28.91V34.3096C47.183 34.4689 46.604 34.7971 46.1418 35.2594C45.6795 35.7216 45.3513 36.3006 45.192 36.9346H25.6139C25.4545 36.3006 25.1263 35.7217 24.664 35.2595C24.2018 34.7973 23.6229 34.469 22.9889 34.3096V28.9074C23.6228 28.7479 24.2017 28.4196 24.6639 27.9574C25.1261 27.4952 25.4544 26.9163 25.6139 26.2824L45.192 26.285Z" fill="black"/>
<path id="Vector_2" d="M52.3976 21H42.9301V5.26312C42.9301 5.03106 42.8379 4.8085 42.6738 4.64441C42.5097 4.48031 42.2872 4.38812 42.0551 4.38812H16.2995C16.0676 4.38794 15.8451 4.47984 15.6809 4.64362L4.88949 15.435C4.72539 15.5991 4.63317 15.8216 4.63312 16.0536V52.2069C4.63312 52.4389 4.7253 52.6615 4.8894 52.8256C5.05349 52.9897 5.27605 53.0819 5.50812 53.0819H42.0551C42.2872 53.0819 42.5097 52.9897 42.6738 52.8256C42.8379 52.6615 42.9301 52.4389 42.9301 52.2069V42.2144H52.3976C52.6297 42.2144 52.8522 42.1222 53.0163 41.9581C53.1804 41.794 53.2726 41.5714 53.2726 41.3394V21.875C53.2726 21.6429 53.1804 21.4204 53.0163 21.2563C52.8522 21.0922 52.6297 21 52.3976 21ZM15.4245 7.37537V15.1786H7.62124L15.4245 7.37537ZM41.1801 51.3319H6.38749V16.9286H16.2995C16.5316 16.9286 16.7541 16.8364 16.9182 16.6723C17.0823 16.5083 17.1745 16.2857 17.1745 16.0536V6.13812H41.1801V21H18.4047C18.1727 21 17.9501 21.0922 17.786 21.2563C17.6219 21.4204 17.5297 21.6429 17.5297 21.875V41.3394C17.5297 41.5714 17.6219 41.794 17.786 41.9581C17.9501 42.1222 18.1727 42.2144 18.4047 42.2144H41.1801V51.3319ZM51.5226 40.4644H19.2797V22.75H51.5226V40.4644Z" fill="black"/>
<path id="Vector_3" d="M22.1156 14.2345H36.239C36.4711 14.2345 36.6936 14.1423 36.8577 13.9782C37.0218 13.8141 37.114 13.5916 37.114 13.3595C37.114 13.1274 37.0218 12.9049 36.8577 12.7408C36.6936 12.5767 36.4711 12.4845 36.239 12.4845H22.1156C21.8836 12.4845 21.661 12.5767 21.4969 12.7408C21.3328 12.9049 21.2406 13.1274 21.2406 13.3595C21.2406 13.5916 21.3328 13.8141 21.4969 13.9782C21.661 14.1423 21.8836 14.2345 22.1156 14.2345Z" fill="black"/>
<path id="Vector_4" d="M14.2266 24.2375H9.60226C9.3702 24.2375 9.14764 24.3297 8.98355 24.4938C8.81945 24.6579 8.72726 24.8804 8.72726 25.1125C8.72726 25.3446 8.81945 25.5671 8.98355 25.7312C9.14764 25.8953 9.3702 25.9875 9.60226 25.9875H14.2266C14.4587 25.9875 14.6813 25.8953 14.8454 25.7312C15.0095 25.5671 15.1016 25.3446 15.1016 25.1125C15.1016 24.8804 15.0095 24.6579 14.8454 24.4938C14.6813 24.3297 14.4587 24.2375 14.2266 24.2375Z" fill="black"/>
<path id="Vector_5" d="M14.2266 29.2346H9.60226C9.3702 29.2346 9.14764 29.3268 8.98355 29.4909C8.81945 29.655 8.72726 29.8776 8.72726 30.1096C8.72726 30.3417 8.81945 30.5642 8.98355 30.7283C9.14764 30.8924 9.3702 30.9846 9.60226 30.9846H14.2266C14.4587 30.9846 14.6813 30.8924 14.8454 30.7283C15.0095 30.5642 15.1016 30.3417 15.1016 30.1096C15.1016 29.8776 15.0095 29.655 14.8454 29.4909C14.6813 29.3268 14.4587 29.2346 14.2266 29.2346Z" fill="black"/>
<path id="Vector_6" d="M14.2266 34.2344H9.60226C9.3702 34.2344 9.14764 34.3266 8.98355 34.4907C8.81945 34.6548 8.72726 34.8773 8.72726 35.1094C8.72726 35.3414 8.81945 35.564 8.98355 35.7281C9.14764 35.8922 9.3702 35.9844 9.60226 35.9844H14.2266C14.4587 35.9844 14.6813 35.8922 14.8454 35.7281C15.0095 35.564 15.1016 35.3414 15.1016 35.1094C15.1016 34.8773 15.0095 34.6548 14.8454 34.4907C14.6813 34.3266 14.4587 34.2344 14.2266 34.2344Z" fill="black"/>
<path id="Vector_7" d="M14.2266 39.235H9.60226C9.3702 39.235 9.14764 39.3272 8.98355 39.4913C8.81945 39.6554 8.72726 39.8779 8.72726 40.11C8.72726 40.3421 8.81945 40.5646 8.98355 40.7287C9.14764 40.8928 9.3702 40.985 9.60226 40.985H14.2266C14.4587 40.985 14.6813 40.8928 14.8454 40.7287C15.0095 40.5646 15.1016 40.3421 15.1016 40.11C15.1016 39.8779 15.0095 39.6554 14.8454 39.4913C14.6813 39.3272 14.4587 39.235 14.2266 39.235Z" fill="black"/>
</g>
</svg>
