<svg width="56" height="56" viewBox="0 0 56 56" fill="none" xmlns="http://www.w3.org/2000/svg">
<g id="energy 2" clip-path="url(#clip0_1_192)">
<path id="Vector" d="M53.1991 46.6667C54.1409 46.6667 55.0126 46.1972 55.5334 45.4114C56.0533 44.6264 56.1429 43.6408 55.7761 42.7747L47.0886 22.2442C46.6527 21.2054 45.641 20.5334 44.5098 20.5334H32.9057L37.003 15.1116C37.0226 15.0855 37.0413 15.0575 37.059 15.0295C37.4183 14.4312 37.4277 13.7107 37.0833 13.104C36.7398 12.4964 36.1173 12.1334 35.4191 12.1334H30.9979L33.0279 1.64737C33.1147 0.9539 32.7134 0.3099 32.0526 0.0821665C31.4133 -0.1381 30.7217 0.0980332 30.3539 0.6599L18.9971 15.6884C18.9775 15.7146 18.9589 15.7426 18.9411 15.7706C18.5818 16.3688 18.5725 17.0894 18.9169 17.696C19.2603 18.3036 19.8829 18.6667 20.581 18.6667H25.0022L24.641 20.5334H11.4903C10.3591 20.5334 9.34739 21.2054 8.91339 22.2414L0.224058 42.7738C-0.143675 43.6408 -0.0531415 44.6264 0.466725 45.4114C0.987525 46.1972 1.85926 46.6667 2.80099 46.6667H20.5334V50.4H18.6667C17.123 50.4 15.8667 51.6563 15.8667 53.2V54.1334C15.8667 55.1628 16.7039 56 17.7334 56H38.2667C39.2962 56 40.1334 55.1628 40.1334 54.1334V53.2C40.1334 51.6563 38.8771 50.4 37.3334 50.4H35.4667V46.6667H53.1991ZM15.1733 44.8L17.5421 34.5334H27.0658V44.8H15.1733ZM28.9334 34.5334H38.4571L40.8259 44.8H28.9325L28.9334 34.5334ZM53.9766 44.3819C53.8011 44.6479 53.5174 44.8 53.1991 44.8H42.743L40.3742 34.5334H50.2619L54.0578 43.5027C54.1829 43.7958 54.1539 44.1159 53.9775 44.381L53.9766 44.3819ZM45.3675 22.9694L49.4714 32.6676H39.943L37.5742 22.401H44.5107C44.8813 22.401 45.2247 22.6278 45.3675 22.9694ZM35.6571 22.401L38.0259 32.6676H28.9325V25.7918L31.4954 22.401H35.6571ZM20.5801 16.801L20.5437 16.7375L30.8458 3.10523L28.9502 12.8903C28.897 13.1638 28.9698 13.4475 29.1462 13.6622C29.3235 13.8759 29.5877 14.001 29.8658 14.001L35.4509 14.07L25.1525 27.6976L27.0481 17.9126C27.1013 17.6391 27.0285 17.3554 26.8521 17.1407C26.6747 16.927 26.4106 16.8019 26.1325 16.8019H20.5801V16.801ZM23.9466 30.7188C24.1071 30.7748 24.2705 30.801 24.4319 30.801C24.9135 30.801 25.3699 30.562 25.6462 30.1411L27.0658 28.2623V32.6676H17.9723L20.3411 22.401H24.2779L22.9703 29.1536C22.8835 29.8471 23.2858 30.4911 23.9466 30.7188ZM10.6326 22.9666C10.7735 22.6278 11.1179 22.401 11.4885 22.401H18.425L16.0562 32.6676H6.52873L10.6326 22.9666ZM2.02352 44.3819C1.84806 44.1168 1.81819 43.7967 1.94326 43.5027L5.73913 34.5343H15.6269L13.2581 44.801H2.80099C2.48272 44.801 2.19899 44.6488 2.02352 44.3828V44.3819ZM38.2667 53.2L38.2686 54.1334H17.7334V53.2C17.7334 52.6848 18.1515 52.2667 18.6667 52.2667H37.3334C37.8486 52.2667 38.2667 52.6848 38.2667 53.2ZM33.6001 50.4H22.4001V46.6667H33.6001V50.4Z" fill="black"/>
</g>
<defs>
<clipPath id="clip0_1_192">
<rect width="56" height="56" fill="white"/>
</clipPath>
</defs>
</svg>
