<svg width="56" height="56" viewBox="0 0 56 56" fill="none" xmlns="http://www.w3.org/2000/svg">
<g id="energy 2">
<path id="Vector" d="M8 35H11V48H8V35Z" fill="black"/>
<path id="Vector_2" d="M12 35H13V48H12V35Z" fill="black"/>
<path id="Vector_3" d="M15 35H16V48H15V35Z" fill="black"/>
<path id="Vector_4" d="M17 44H19V48H17V44Z" fill="black"/>
<path id="Vector_5" d="M20 44H21V48H20V44Z" fill="black"/>
<path id="Vector_6" d="M49.264 39.1749L47.0327 37.1362C47.0514 36.8506 47.0613 36.5686 47.0613 36.2925C47.0613 36.0167 47.0514 35.7347 47.0327 35.4495L49.7192 32.994L48.7129 29.905L45.0992 29.5C44.7993 29.0254 44.4686 28.5709 44.1093 28.1395L44.8392 24.577L42.2095 22.6606L39.0454 24.4525C38.5229 24.2419 37.9871 24.0665 37.4411 23.9274L35.9224 20.5802H32.7028L31.1841 23.9274C30.6381 24.0665 30.1024 24.2419 29.5798 24.4525L28.7496 23.983V4H4V52H28.7496V48.6016L29.5805 48.1306C30.1027 48.3412 30.6385 48.5166 31.1841 48.6558L32.7028 52H35.921L37.4396 48.6525C37.9856 48.5133 38.5214 48.3379 39.044 48.1277L41.6195 49.5863C43.801 51.2581 46.8031 51.3613 49.0945 49.8438L49.9946 49.2498L45.8169 46.1904L47.6344 43.7094L51.715 46.6987L51.9139 45.495C52.3163 43.0538 51.2873 40.5977 49.2648 39.1727L49.264 39.1749ZM29.4868 26.125L29.8303 25.9749C30.4894 25.6877 31.175 25.4647 31.877 25.3087L32.2432 25.2278L33.6681 22.0846H34.9513L36.3762 25.2278L36.7424 25.3087C37.4444 25.4647 38.1296 25.6877 38.7891 25.9749L39.1326 26.125L42.1622 24.4097C42.5127 24.6429 42.8547 24.892 43.1839 25.1545L42.4841 28.5669L42.7324 28.8474C43.2092 29.3857 43.6336 29.9688 43.9991 30.588L44.1895 30.9099L47.6524 31.2963C47.8021 31.6885 47.9299 32.088 48.0416 32.4916L45.4742 34.8416L45.5104 35.2166C45.5448 35.5824 45.5621 35.9453 45.5621 36.295C45.5621 36.6444 45.5448 37.0073 45.5104 37.3735L45.4742 37.7485L45.7452 37.9965C45.6701 37.9965 45.6034 37.9855 45.5306 37.9855C44.6099 37.9855 43.6999 38.1818 42.8613 38.5615L40.9863 37.2633C41.3694 34.7266 40.2744 32.1935 38.1644 30.7349C36.0546 29.2759 33.2982 29.1459 31.0603 30.3998L29.3842 29.2411C29.5988 28.1348 29.5131 26.9911 29.1367 25.9291L29.4868 26.125ZM39.5614 36.2738L32.4867 31.3831C34.0929 30.7719 35.8968 30.9905 37.3104 31.9675C38.7239 32.9449 39.5658 34.5555 39.5614 36.2738ZM5.49998 5.5H27.2496V10H12.9999V8.5H5.49998V5.5ZM5.49998 10H11.4999V11.5H5.49998V10ZM5.49998 13H12.9999V11.5H27.2496V17.5H12.9999V16H5.49998V13ZM5.49998 17.5H11.4999V19H5.49998V17.5ZM27.2496 50.5H5.49998V20.5H12.9999V19H27.2496V23.1331L27.2038 23.1078C25.0154 21.2478 21.8609 21.0588 19.4663 22.6442L18.5662 23.2382L22.7438 26.2975L20.9264 28.7786L16.8472 25.7888L16.6487 26.9926C16.2488 29.411 17.2559 31.8467 19.2466 33.2767L19.2323 33.2932L21.5903 35.4487C21.5723 35.7318 21.5625 36.0138 21.5625 36.2917C21.5625 36.5701 21.5723 36.8528 21.5903 37.1348L18.9038 39.5902L19.0096 40.0216C19.1968 40.7888 19.4414 41.541 19.7413 42.2716L19.9109 42.6818L23.526 43.0846C23.826 43.5592 24.1566 44.0137 24.5159 44.4451L23.786 48.0076L24.1244 48.2958C24.7272 48.807 25.367 49.2732 26.0382 49.6899L26.4132 49.924L27.2496 49.4497V50.5ZM39.137 46.4596L38.7935 46.6097C38.1343 46.8972 37.4488 47.1202 36.7468 47.2755L36.3806 47.3575L34.9535 50.5H33.6703L32.2454 47.3575L31.877 47.2748C31.175 47.1195 30.4898 46.8965 29.831 46.609L29.4875 46.4589L26.4575 48.1749C26.1078 47.9424 25.7669 47.6941 25.4354 47.4301L26.1353 44.0177L25.887 43.7372C25.4102 43.1989 24.9861 42.6162 24.6203 41.9973L24.4298 41.6747L20.967 41.2883C20.8169 40.8969 20.6902 40.4973 20.5777 40.093L23.1496 37.7423L23.1133 37.3673C23.0796 37.0066 23.0624 36.6437 23.0624 36.2888C23.0624 35.934 23.0796 35.5718 23.1133 35.2103L23.1496 34.8353L22.7746 34.4918C22.8599 34.4918 22.9445 34.5046 23.0317 34.5046C23.9358 34.5043 24.8301 34.3146 25.6566 33.948L27.6426 35.3213C27.5949 35.6406 27.5697 35.9629 27.5675 36.2859C27.5572 38.6758 28.8166 40.8914 30.8754 42.105C32.9346 43.3186 35.483 43.3475 37.5685 42.1808L39.1751 43.2908C39.1245 43.5731 39.093 43.8588 39.0813 44.1451C39.0733 44.2502 39.067 44.3513 39.067 44.4451C39.067 44.6538 39.0791 44.86 39.0985 45.064C39.104 45.1248 39.1143 45.183 39.122 45.2423C39.1388 45.3895 39.1608 45.5349 39.1879 45.6788C39.2 45.7389 39.2143 45.7982 39.2278 45.8583C39.2597 46.0048 39.2967 46.149 39.3388 46.2908C39.3538 46.3387 39.3681 46.3867 39.3838 46.434C39.404 46.4988 39.4204 46.564 39.4428 46.627L39.137 46.4596ZM29.0631 36.3108L36.137 41.1997C34.5312 41.8113 32.7273 41.5927 31.3138 40.6156C29.9002 39.6385 29.0587 38.0291 29.0631 36.3108ZM47.3096 41.6154L43.72 46.516L47.2587 49.108C45.6163 49.7163 43.775 49.4138 42.4138 48.3123C42.3138 48.2321 42.2208 48.1464 42.1285 48.0603C42.071 48.0054 42.0132 47.9508 41.9575 47.8929C41.8638 47.7955 41.7722 47.6963 41.6876 47.593C41.6276 47.5179 41.573 47.4429 41.5173 47.3678C41.473 47.307 41.4272 47.2462 41.3855 47.1832C41.3313 47.1016 41.2819 47.017 41.2353 46.9313C41.198 46.8676 41.1603 46.8038 41.1273 46.7379C41.083 46.653 41.042 46.5662 41.0021 46.4783C40.9698 46.4036 40.9398 46.3336 40.9105 46.2593C40.8812 46.1853 40.8453 46.0905 40.8168 46.0037C40.7882 45.9165 40.7651 45.8304 40.7421 45.7433C40.7186 45.6565 40.6985 45.5865 40.6813 45.5071C40.6578 45.399 40.6414 45.2888 40.6249 45.1793C40.6157 45.1156 40.6033 45.0526 40.5956 44.9882C40.5762 44.8095 40.5663 44.63 40.5656 44.4506C40.5656 44.3433 40.5806 44.2338 40.5883 44.125C40.6135 43.8862 40.6564 43.6105 40.6978 43.375C40.7142 43.3043 40.7216 43.234 40.7402 43.1633L40.8776 42.6536L25.7698 32.2111L25.3662 32.4264C23.908 33.2031 22.1586 33.2035 20.6997 32.4279C19.2407 31.6519 18.2633 30.2013 18.0916 28.5577L21.2497 30.8748L24.8415 25.9749L21.3028 23.3835C23.0518 22.7284 25.0209 23.1115 26.3964 24.3752C27.7715 25.6387 28.32 27.5682 27.815 29.3663L27.6726 29.8794L42.7518 40.2999L43.1576 40.0747C44.6169 39.2826 46.375 39.2716 47.8446 40.0447C49.3138 40.8181 50.3 42.2742 50.4729 43.9254L47.3096 41.6154Z" fill="black"/>
</g>
</svg>
