<svg width="50" height="50" viewBox="0 0 50 50" fill="none" xmlns="http://www.w3.org/2000/svg">
<g id="g345">
<g id="g347">
<g id="Clip path group">
<mask id="mask0_77_15" style="mask-type:luminance" maskUnits="userSpaceOnUse" x="0" y="0" width="50" height="50">
<g id="clipPath353">
<path id="path351" d="M0 -3.8147e-06H50V50H0V-3.8147e-06Z" fill="white"/>
</g>
</mask>
<g mask="url(#mask0_77_15)">
<g id="g349">
<g id="g355">
<path id="path357 (Stroke)" fill-rule="evenodd" clip-rule="evenodd" d="M16.616 20.4648C17.0577 19.918 17.3086 19.229 17.3086 18.5057V15.7349C17.3086 15.4602 17.0808 15.2324 16.8061 15.2324H13.758C13.4834 15.2324 13.2556 15.4601 13.2556 15.7349V18.2684C13.2556 18.5431 13.4834 18.7708 13.758 18.7708H15.401C16.072 18.7708 16.616 19.3147 16.616 19.9857V20.4648ZM16.6061 22.3998C15.9721 22.793 15.1511 22.3374 15.1511 21.5901V20.2356H13.758C12.6743 20.2356 11.7908 19.352 11.7908 18.2684V15.7349C11.7908 14.6512 12.6743 13.7676 13.758 13.7676H16.8061C17.8897 13.7676 18.7734 14.6511 18.7734 15.7349V18.5057C18.7734 20.0912 17.9536 21.5641 16.6061 22.3998" fill="#2CB81D"/>
</g>
<g id="g359">
<path id="path361 (Stroke)" fill-rule="evenodd" clip-rule="evenodd" d="M24.723 20.4648C25.1648 19.918 25.4156 19.2291 25.4156 18.5057V15.7349C25.4156 15.4602 25.1878 15.2324 24.9132 15.2324H21.865C21.5905 15.2324 21.3627 15.4601 21.3627 15.7349V18.2684C21.3627 18.5431 21.5905 18.7708 21.865 18.7708H23.508C24.179 18.7708 24.723 19.3146 24.723 19.9857V20.4648ZM23.2582 21.5901C23.2582 22.3375 24.079 22.7929 24.713 22.3999C26.0605 21.5643 26.8805 20.0913 26.8805 18.5057V15.7349C26.8805 14.6511 25.9967 13.7676 24.9132 13.7676H21.865C20.7814 13.7676 19.8978 14.6512 19.8978 15.7349V18.2684C19.8978 19.352 20.7814 20.2357 21.865 20.2357H23.2582V21.5901Z" fill="#2CB81D"/>
</g>
<g id="g363">
<path id="path365 (Stroke)" fill-rule="evenodd" clip-rule="evenodd" d="M7.29234 25.3589C7.29234 25.7634 7.62026 26.0913 8.02477 26.0913H33.2357C33.6402 26.0913 33.9681 25.7634 33.9681 25.3589C33.9681 24.9544 33.6402 24.6265 33.2357 24.6265H8.02477C7.62026 24.6265 7.29234 24.9544 7.29234 25.3589Z" fill="#2CB81D"/>
</g>
<g id="g367">
<path id="path369 (Stroke)" fill-rule="evenodd" clip-rule="evenodd" d="M7.29234 28.728C7.29234 29.1325 7.62026 29.4604 8.02477 29.4604H33.2357C33.6402 29.4604 33.9681 29.1325 33.9681 28.728C33.9681 28.3235 33.6402 27.9955 33.2357 27.9955H8.02477C7.62026 27.9955 7.29234 28.3235 7.29234 28.728Z" fill="#2CB81D"/>
</g>
<g id="g371">
<path id="path373 (Stroke)" fill-rule="evenodd" clip-rule="evenodd" d="M7.29234 32.0971C7.29234 32.5016 7.62026 32.8295 8.02477 32.8295H33.2357C33.6402 32.8295 33.9681 32.5016 33.9681 32.0971C33.9681 31.6926 33.6402 31.3647 33.2357 31.3647H8.02477C7.62026 31.3647 7.29234 31.6926 7.29234 32.0971Z" fill="#2CB81D"/>
</g>
<g id="g375">
<path id="path377 (Stroke)" fill-rule="evenodd" clip-rule="evenodd" d="M13.5951 35.4662C13.5951 35.8707 13.923 36.1986 14.3275 36.1986H26.933C27.3375 36.1986 27.6654 35.8707 27.6654 35.4662C27.6654 35.0617 27.3375 34.7338 26.933 34.7338H14.3275C13.923 34.7338 13.5951 35.0617 13.5951 35.4662Z" fill="#2CB81D"/>
</g>
<g id="g379">
<path id="path381 (Stroke)" fill-rule="evenodd" clip-rule="evenodd" d="M23.012 47.7821C22.8944 48.0222 23.1589 48.2432 23.3702 48.1125L23.012 47.7821ZM21.6966 47.1375C20.9405 48.6806 22.6638 50.2723 24.141 49.3581L24.1411 49.3581C26.6229 47.822 30.168 45.2438 33.1616 41.5854L33.1617 41.5853C33.4041 41.289 33.7725 41.1156 34.1646 41.1156C38.0939 41.1156 41.3057 37.9038 41.3057 33.9744V27.0679C41.3057 26.6634 40.9778 26.3355 40.5733 26.3355C40.1688 26.3355 39.8409 26.6634 39.8409 27.0679V33.9744C39.8409 37.0947 37.2849 39.6507 34.1646 39.6507C33.3423 39.6507 32.5543 40.0143 32.0279 40.6578C29.1717 44.1483 25.7705 46.6269 23.3702 48.1125M23.012 47.7821C24.0106 45.7448 24.6867 43.756 25.1286 41.8745C25.397 40.732 24.5215 39.6507 23.3602 39.6507H7.14105C4.02084 39.6507 1.46478 37.0947 1.46478 33.9744V15.8163C1.46478 12.696 4.02084 10.1401 7.14105 10.1401H34.1646C37.2849 10.1401 39.8409 12.696 39.8409 15.8163V23.6499C39.8409 24.0544 40.1688 24.3824 40.5733 24.3824C40.9778 24.3824 41.3057 24.0544 41.3057 23.6499V15.8163C41.3057 11.887 38.0939 8.67522 34.1646 8.67522H7.14105C3.21185 8.67522 -6.10352e-05 11.887 -6.10352e-05 15.8163V33.9744C-6.10352e-05 37.9038 3.21185 41.1156 7.14105 41.1156H23.3602C23.5896 41.1156 23.7521 41.3284 23.7025 41.5396C23.2843 43.3204 22.644 45.2046 21.6967 47.1374L21.6966 47.1375" fill="#2CB81D"/>
</g>
<g id="g383">
<path id="path385 (Stroke)" fill-rule="evenodd" clip-rule="evenodd" d="M9.42671 10.14C9.83122 10.14 10.1591 9.8121 10.1591 9.40759V7.5199C10.1591 4.3996 12.7151 1.84363 15.8354 1.84363H27.6381C28.0426 1.84363 28.3706 1.51571 28.3706 1.11121C28.3706 0.7067 28.0426 0.378783 27.6381 0.378783H15.8354C11.9061 0.378783 8.69429 3.59059 8.69429 7.5199V9.40759C8.69429 9.8121 9.02221 10.14 9.42671 10.14Z" fill="#2CB81D"/>
</g>
<g id="g387">
<path id="path389 (Stroke)" fill-rule="evenodd" clip-rule="evenodd" d="M39.8409 32.0867C39.8409 32.4912 40.1688 32.8192 40.5733 32.8192H42.8588C46.7882 32.8192 50 29.6072 50 25.678V7.51993C50 3.59062 46.7882 0.378819 42.8588 0.378819H31.0561C30.6516 0.378819 30.3237 0.706738 30.3237 1.11124C30.3237 1.51575 30.6516 1.84366 31.0561 1.84366H42.8588C45.9791 1.84366 48.5351 4.39964 48.5351 7.51993V25.678C48.5351 28.7982 45.9791 31.3543 42.8588 31.3543H40.5733C40.1688 31.3543 39.8409 31.6822 39.8409 32.0867Z" fill="#2CB81D"/>
</g>
</g>
</g>
</g>
</g>
</g>
</svg>
