<svg width="54" height="46" viewBox="0 0 54 46" fill="none" xmlns="http://www.w3.org/2000/svg">
<g id="Group">
<g id="Group_2">
<path id="Vector" d="M45.9616 31.3563H17.1831C16.822 31.3563 16.5027 31.1207 16.3962 30.7757L14.23 23.7568C14.1528 23.5071 14.199 23.2352 14.3542 23.0249C14.5094 22.8146 14.7555 22.6904 15.0169 22.6904H48.1278C48.3891 22.6904 48.6352 22.8146 48.7905 23.0249C48.9457 23.2352 48.9919 23.5071 48.9147 23.7568L46.7485 30.7757C46.642 31.1207 46.3227 31.3563 45.9616 31.3563ZM17.7907 29.7093H45.354L47.0119 24.3374H16.1328L17.7907 29.7093Z" fill="black"/>
</g>
<g id="Group_3">
<path id="Vector_2" d="M45.9616 31.3563H17.1831C16.822 31.3563 16.5027 31.1207 16.3962 30.7757L9.82845 9.4942C9.69455 9.05951 9.93783 8.59869 10.3725 8.46438C10.8076 8.33008 11.268 8.57376 11.4023 9.00844L17.7907 29.7093H45.354L51.7424 9.00844C51.8767 8.57336 52.3379 8.32968 52.7722 8.46438C53.2069 8.59869 53.4502 9.05951 53.3163 9.4942L46.7485 30.7757C46.642 31.1207 46.3227 31.3563 45.9616 31.3563Z" fill="black"/>
</g>
<g id="Group_4">
<path id="Vector_3" d="M52.5261 10.074H42.7326C42.2778 10.074 41.9091 9.70531 41.9091 9.25052C41.9091 8.79573 42.2778 8.42699 42.7326 8.42699H52.5261C52.9809 8.42699 53.3496 8.79573 53.3496 9.25052C53.3496 9.70531 52.9809 10.074 52.5261 10.074Z" fill="black"/>
</g>
<g id="Group_5">
<path id="Vector_4" d="M20.4072 10.074H10.6138C10.159 10.074 9.79022 9.70531 9.79022 9.25052C9.79022 8.79573 10.159 8.42699 10.6138 8.42699H20.4072C20.862 8.42699 21.2308 8.79573 21.2308 9.25052C21.2308 9.70531 20.862 10.074 20.4072 10.074Z" fill="black"/>
</g>
<g id="Group_6">
<path id="Vector_5" d="M10.6158 10.0753C10.2897 10.0753 9.98084 9.88023 9.85136 9.55894L6.75428 1.87012H1.4705C1.01571 1.87012 0.646973 1.50138 0.646973 1.04659C0.646973 0.591797 1.01571 0.223059 1.4705 0.223059H7.3104C7.64657 0.223059 7.94856 0.427333 8.07442 0.738971L11.3794 8.9437C11.5491 9.36552 11.3448 9.84524 10.923 10.0153C10.8221 10.056 10.7179 10.0753 10.6158 10.0753Z" fill="black"/>
</g>
<g id="Group_7">
<path id="Vector_6" d="M13.9791 45.7769C11.4868 45.7769 9.45892 43.7491 9.45892 41.2568C9.45892 38.7645 11.4868 36.7366 13.9791 36.7366C14.567 36.7366 15.1392 36.8524 15.68 37.0812C17.3858 37.7592 18.4988 39.4006 18.4988 41.2568C18.4988 43.7491 16.4714 45.7769 13.9791 45.7769ZM13.9791 38.3837C12.3948 38.3837 11.106 39.6725 11.106 41.2568C11.106 42.8411 12.3948 44.1299 13.9791 44.1299C15.563 44.1299 16.8518 42.8411 16.8518 41.2568C16.8518 40.0798 16.1465 39.0387 15.0547 38.6048C14.7017 38.4557 14.3454 38.3837 13.9791 38.3837Z" fill="black"/>
</g>
<g id="Group_8">
<path id="Vector_7" d="M48.1278 45.7769C45.6355 45.7769 43.608 43.7491 43.608 41.2568C43.608 38.7645 45.6355 36.7366 48.1278 36.7366C48.7157 36.7366 49.2879 36.8524 49.8287 37.0812C51.5349 37.7592 52.648 39.401 52.648 41.2568C52.648 43.7491 50.6201 45.7769 48.1278 45.7769ZM48.1278 38.3837C46.5439 38.3837 45.2551 39.6725 45.2551 41.2568C45.2551 42.8411 46.5439 44.1299 48.1278 44.1299C49.7121 44.1299 51.0009 42.8411 51.0009 41.2568C51.0009 40.0798 50.2956 39.0387 49.2034 38.6048C48.8504 38.4557 48.4941 38.3837 48.1278 38.3837Z" fill="black"/>
</g>
<g id="Group_9">
<path id="Vector_8" d="M31.5724 17.2687C27.1519 17.2687 23.5554 13.6722 23.5554 9.25132C23.5554 4.83048 27.1519 1.23397 31.5724 1.23397C35.9932 1.23397 39.5897 4.83048 39.5897 9.25132C39.5897 13.6722 35.9932 17.2687 31.5724 17.2687ZM31.5724 2.88103C28.0599 2.88103 25.2025 5.73886 25.2025 9.25132C25.2025 12.7638 28.0599 15.6216 31.5724 15.6216C35.0848 15.6216 37.9427 12.7638 37.9427 9.25132C37.9427 5.73886 35.0848 2.88103 31.5724 2.88103Z" fill="black"/>
</g>
<g id="Group_10">
<g id="Group_11">
<path id="Vector_9" d="M28.2854 13.3617C28.0747 13.3617 27.864 13.2813 27.7032 13.1205C27.3815 12.7988 27.3815 12.2776 27.7032 11.9559L34.2773 5.38178C34.599 5.06009 35.1202 5.06009 35.4419 5.38178C35.7636 5.70347 35.7636 6.22461 35.4419 6.5463L28.8677 13.1205C28.7069 13.2813 28.4962 13.3617 28.2854 13.3617Z" fill="black"/>
</g>
<g id="Group_12">
<path id="Vector_10" d="M34.8596 13.3617C34.6489 13.3617 34.4382 13.2813 34.2773 13.1205L27.7032 6.5463C27.3815 6.22461 27.3815 5.70347 27.7032 5.38178C28.0249 5.06009 28.546 5.06009 28.8677 5.38178L35.4419 11.9559C35.7636 12.2776 35.7636 12.7988 35.4419 13.1205C35.281 13.2813 35.0703 13.3617 34.8596 13.3617Z" fill="black"/>
</g>
</g>
<g id="Group_13">
<path id="Vector_11" d="M48.8966 38.3837H12.8137C12.5145 38.3837 12.2391 38.2216 12.0939 37.9602C11.9488 37.6989 11.9564 37.3792 12.1144 37.1255L16.4838 30.0981C16.7235 29.7117 17.2313 29.5919 17.6178 29.8335C18.0042 30.0736 18.1224 30.5815 17.8824 30.9675L14.2955 36.7366H48.8966C49.3514 36.7366 49.7201 37.1054 49.7201 37.5601C49.7201 38.0149 49.3514 38.3837 48.8966 38.3837Z" fill="black"/>
</g>
</g>
</svg>
