<svg width="52" height="52" viewBox="0 0 52 52" fill="none" xmlns="http://www.w3.org/2000/svg">
<g id="make_a_choice_x2C__choose_x2C__tick_x2C__mark_x2C__touchscreen_x2C__check">
<g id="Group">
<g id="XMLID_325_">
<path id="Vector" d="M31.2 52C30.8308 52 30.4911 51.7642 30.3732 51.3933C30.323 51.2806 30.0214 51.0258 29.8134 50.9028C27.2307 49.3896 24.3117 42.6989 23.9876 41.9414L21.2472 31.3646C21.1502 30.9902 21.3131 30.5968 21.6459 30.4009C23.3359 29.4077 24.6376 29.4961 25.4384 29.7457C26.5599 30.0976 27.482 30.9885 28.0991 32.3232L29.4667 35.1797V19.0666C29.4667 17.1548 31.0215 15.6 32.9333 15.6C34.8452 15.6 36.4 17.1548 36.4 19.0666V28.1996C36.9096 27.9032 37.5024 27.7333 38.1334 27.7333C39.3935 27.7333 40.4959 28.4076 41.1043 29.4146C41.7075 28.9068 42.4858 28.6 43.3333 28.6C44.8431 28.6 46.131 29.5706 46.6059 30.9192C47.1571 30.55 47.8209 30.3333 48.5333 30.3333C50.4452 30.3333 52 31.8881 52 33.8V47.6666C52 50.0552 50.0569 52 47.6667 52H39C38.5216 52 38.1334 51.6117 38.1334 51.1333C38.1334 50.6549 38.5216 50.2666 39 50.2666H47.6667C49.1002 50.2666 50.2667 49.1001 50.2667 47.6666V33.8C50.2667 32.8449 49.4902 32.0666 48.5333 32.0666C47.5765 32.0666 46.8 32.8449 46.8 33.8C46.8 34.2784 46.4118 34.6666 45.9333 34.6666C45.455 34.6666 45.0667 34.2784 45.0667 33.8V32.0666C45.0667 31.1116 44.2901 30.3333 43.3333 30.3333C42.3766 30.3333 41.6 31.1116 41.6 32.0666C41.6 32.545 41.2118 32.9333 40.7334 32.9333C40.2549 32.9333 39.8667 32.545 39.8667 32.0666V31.2C39.8667 30.2449 39.0902 29.4666 38.1334 29.4666C37.1765 29.4666 36.4 30.2449 36.4 31.2C36.4 31.6784 36.0118 32.0666 35.5333 32.0666C35.0549 32.0666 34.6667 31.6784 34.6667 31.2V19.0666C34.6667 18.1116 33.8902 17.3333 32.9333 17.3333C31.9766 17.3333 31.2 18.1116 31.2 19.0666V39C31.2 39.4038 30.9192 39.7557 30.524 39.8458C30.1254 39.9394 29.7267 39.7384 29.5499 39.3744L26.5304 33.0598C26.2427 32.4376 25.7331 31.6524 24.9201 31.3993C24.3897 31.2346 23.7796 31.3005 23.0967 31.6004L25.6221 41.385C26.3987 43.1756 28.9137 48.3704 30.6904 49.4104C30.9435 49.5594 31.7807 50.102 32.0251 50.875C32.169 51.3309 31.9159 51.818 31.46 51.9618C31.3751 51.9878 31.2867 52 31.2 52Z" fill="#2CB81D"/>
</g>
<g id="XMLID_345_">
<path id="Vector_2" d="M32.0667 13C31.8448 13 31.6229 12.9151 31.4531 12.7469L27.1197 8.41361C26.7817 8.07561 26.7817 7.52615 27.1197 7.18815C27.4577 6.85015 28.0072 6.85015 28.3452 7.18815L32.0667 10.9079L41.8531 1.12148C42.1911 0.783481 42.7405 0.783481 43.0785 1.12148C43.4165 1.45948 43.4165 2.00895 43.0785 2.34695L32.6785 12.7469C32.5104 12.9151 32.2885 13 32.0667 13Z" fill="#2CB81D"/>
</g>
<g id="Group_2">
<path id="Vector_3" d="M16.4667 19.0667H2.6C1.16653 19.0667 0 17.9001 0 16.4667V2.6C0 1.16653 1.16653 0 2.6 0H16.4667C17.9001 0 19.0667 1.16653 19.0667 2.6V16.4667C19.0667 17.9001 17.9001 19.0667 16.4667 19.0667ZM2.6 1.73333C2.12333 1.73333 1.73333 2.1216 1.73333 2.6V16.4667C1.73333 16.9451 2.12333 17.3333 2.6 17.3333H16.4667C16.9433 17.3333 17.3333 16.9451 17.3333 16.4667V2.6C17.3333 2.1216 16.9433 1.73333 16.4667 1.73333H2.6Z" fill="#2CB81D"/>
</g>
<g id="Group_3">
<path id="Vector_4" d="M16.4667 41.6H2.6C1.16653 41.6 0 40.4335 0 39V25.1333C0 23.6999 1.16653 22.5333 2.6 22.5333H16.4667C17.9001 22.5333 19.0667 23.6999 19.0667 25.1333V39C19.0667 40.4335 17.9001 41.6 16.4667 41.6ZM2.6 24.2667C2.12333 24.2667 1.73333 24.6549 1.73333 25.1333V39C1.73333 39.4784 2.12333 39.8667 2.6 39.8667H16.4667C16.9433 39.8667 17.3333 39.4784 17.3333 39V25.1333C17.3333 24.6549 16.9433 24.2667 16.4667 24.2667H2.6Z" fill="#2CB81D"/>
</g>
<g id="Group_4">
<path id="Vector_5" d="M26.8667 19.0667H25.1333C23.6999 19.0667 22.5333 17.9001 22.5333 16.4667V2.6C22.5333 1.16653 23.6999 0 25.1333 0H39C39.4784 0 39.8667 0.388267 39.8667 0.866667C39.8667 1.34507 39.4784 1.73333 39 1.73333H25.1333C24.6567 1.73333 24.2667 2.1216 24.2667 2.6V16.4667C24.2667 16.9451 24.6567 17.3333 25.1333 17.3333H26.8667C27.3451 17.3333 27.7333 17.7216 27.7333 18.2C27.7333 18.6784 27.3451 19.0667 26.8667 19.0667Z" fill="#2CB81D"/>
</g>
<g id="Group_5">
<path id="Vector_6" d="M39 19.0667H35.5333C35.0549 19.0667 34.6667 18.6784 34.6667 18.2C34.6667 17.7216 35.0549 17.3333 35.5333 17.3333H39C39.4767 17.3333 39.8667 16.9451 39.8667 16.4667V7.80002C39.8667 7.32162 40.2549 6.93335 40.7333 6.93335C41.2117 6.93335 41.6 7.32162 41.6 7.80002V16.4667C41.6 17.9001 40.4335 19.0667 39 19.0667Z" fill="#2CB81D"/>
</g>
</g>
</g>
</svg>
