<svg width="12" height="22" viewBox="0 0 12 22" fill="none" xmlns="http://www.w3.org/2000/svg">
<g id="Group">
<path id="Vector" d="M3.9633 21.1516C4.23422 21.267 4.54922 21.1707 4.70745 20.9217L11.9074 9.52638C12.024 9.34194 12.031 9.10906 11.9255 8.9188C11.8201 8.72795 11.6185 8.60946 11.3999 8.60946H6.59471L8.38181 1.5448C8.45389 1.2594 8.30797 0.964633 8.0367 0.848488C7.76718 0.732941 7.45018 0.829802 7.29254 1.07843L0.092627 12.4737C-0.0239717 12.6582 -0.0310117 12.8911 0.0744671 13.0813C0.179946 13.2722 0.381504 13.3907 0.600061 13.3907H5.40529L3.61819 20.4553C3.54611 20.7408 3.69199 21.0355 3.9633 21.1516Z" fill="#6F6D68"/>
</g>
</svg>
